<svg xmlns="http://www.w3.org/2000/svg" viewBox="97.434 66.636 32.559 42.469"><defs><g id="glyph-1-3"><path d="M 1.88 -8.42 C 1.7 -8.39 1.58 -8.44 1.52 -8.56 C 1.42 -8.69 1.39 -8.88 1.41 -9.06 C 1.44 -9.25 1.5 -9.41 1.59 -9.55 C 1.69 -9.69 1.81 -9.8 2 -9.88 C 2.08 -9.91 2.22 -9.97 2.45 -10.08 C 2.7 -10.17 2.95 -10.27 3.3 -10.39 C 3.61 -10.48 3.95 -10.58 4.33 -10.66 C 4.88 -10.77 5.27 -10.81 5.58 -10.78 C 5.86 -10.75 6.06 -10.66 6.19 -10.53 C 6.28 -10.38 6.31 -10.19 6.3 -9.98 C 6.27 -9.8 6.22 -9.67 6.16 -9.55 C 6.06 -9.44 5.94 -9.38 5.8 -9.34 C 5.7 -9.33 5.58 -9.3 5.44 -9.31 C 5.27 -9.31 5.08 -9.28 4.84 -9.28 C 4.61 -9.28 4.3 -9.22 3.95 -9.14 C 3.59 -9.06 3.3 -9 3.03 -8.88 C 3.02 -8.83 3.02 -8.77 3 -8.7 C 2.97 -8.39 2.92 -8.06 2.86 -7.7 C 2.81 -7.33 2.78 -6.98 2.73 -6.66 C 2.72 -6.56 2.7 -6.45 2.7 -6.38 C 2.8 -6.41 2.91 -6.44 3.03 -6.47 C 3.3 -6.53 3.59 -6.58 3.88 -6.62 C 4.16 -6.67 4.44 -6.66 4.67 -6.64 C 4.94 -6.59 5.16 -6.53 5.33 -6.39 C 5.5 -6.25 5.66 -6.06 5.73 -5.81 C 5.81 -5.53 5.83 -5.19 5.78 -4.72 C 5.73 -4.39 5.64 -4.02 5.5 -3.66 C 5.36 -3.27 5.17 -2.91 4.95 -2.53 C 4.72 -2.16 4.47 -1.83 4.22 -1.52 C 3.94 -1.2 3.67 -0.94 3.39 -0.73 C 3.12 -0.53 2.83 -0.38 2.58 -0.33 C 2.23 -0.25 1.95 -0.33 1.75 -0.5 C 1.55 -0.72 1.39 -1.03 1.31 -1.44 C 1.23 -1.84 1.23 -2.33 1.3 -2.88 C 1.33 -3.08 1.34 -3.31 1.39 -3.59 C 1.42 -3.84 1.45 -4.14 1.5 -4.44 C 1.55 -4.73 1.59 -5.03 1.62 -5.33 C 1.66 -5.62 1.69 -5.88 1.72 -6.16 C 1.73 -6.34 1.77 -6.59 1.8 -6.89 C 1.84 -7.2 1.88 -7.5 1.92 -7.83 C 1.97 -8.06 2 -8.25 2.02 -8.45 C 1.97 -8.44 1.92 -8.44 1.88 -8.42 Z M 2.53 -5.03 C 2.52 -4.84 2.47 -4.62 2.44 -4.42 C 2.41 -4.14 2.38 -3.88 2.33 -3.62 C 2.3 -3.39 2.28 -3.19 2.27 -3.05 C 2.22 -2.61 2.23 -2.28 2.33 -2.06 C 2.42 -1.83 2.58 -1.72 2.8 -1.77 C 2.98 -1.81 3.17 -1.92 3.38 -2.09 C 3.58 -2.25 3.8 -2.47 4 -2.73 C 4.17 -2.98 4.34 -3.27 4.48 -3.55 C 4.62 -3.81 4.7 -4.11 4.73 -4.39 C 4.77 -4.7 4.7 -4.94 4.55 -5.06 C 4.39 -5.17 4.16 -5.23 3.81 -5.22 C 3.48 -5.22 3.05 -5.16 2.53 -5.03 Z M 2.53 -5.03 "/></g><g id="glyph-1-19"></g><g id="glyph-1-20"><path d="M 1.41 -0.16 C 1.3 -0.14 1.19 -0.16 1.11 -0.27 C 1.05 -0.36 0.98 -0.52 0.97 -0.72 C 0.92 -0.89 0.94 -1.16 0.97 -1.45 C 1 -1.75 1.05 -2.12 1.11 -2.52 C 1.16 -2.92 1.22 -3.36 1.28 -3.81 C 1.34 -4.27 1.41 -4.72 1.45 -5.19 C 1.5 -5.56 1.53 -5.97 1.59 -6.41 C 1.62 -6.84 1.66 -7.3 1.69 -7.72 C 1.7 -8.02 1.7 -8.28 1.69 -8.52 C 1.69 -8.52 1.67 -8.52 1.66 -8.52 C 1.55 -8.48 1.44 -8.52 1.36 -8.56 C 1.27 -8.61 1.22 -8.67 1.19 -8.78 C 1.14 -8.89 1.12 -9 1.14 -9.09 C 1.17 -9.31 1.22 -9.47 1.33 -9.61 C 1.42 -9.73 1.58 -9.84 1.75 -9.92 C 1.94 -10 2.12 -10.06 2.33 -10.11 C 2.61 -10.16 2.89 -10.22 3.2 -10.27 C 3.5 -10.33 3.77 -10.38 4.06 -10.42 C 4.34 -10.47 4.61 -10.52 4.86 -10.55 C 5.08 -10.58 5.27 -10.62 5.41 -10.64 C 5.78 -10.69 6.05 -10.64 6.17 -10.48 C 6.3 -10.34 6.34 -10.05 6.3 -9.64 C 6.25 -9.23 6.2 -8.81 6.14 -8.39 C 6.09 -7.94 6.02 -7.47 5.95 -7.05 C 5.89 -6.61 5.83 -6.2 5.8 -5.83 C 5.73 -5.42 5.69 -5.06 5.66 -4.8 C 5.58 -4.09 5.53 -3.47 5.52 -2.94 C 5.5 -2.42 5.48 -2.05 5.47 -1.8 C 5.45 -1.67 5.42 -1.53 5.36 -1.41 C 5.31 -1.27 5.25 -1.14 5.19 -1.05 C 5.11 -0.97 5.02 -0.91 4.91 -0.89 C 4.75 -0.86 4.64 -0.95 4.58 -1.23 C 4.52 -1.5 4.48 -1.89 4.5 -2.42 C 4.53 -2.95 4.56 -3.59 4.66 -4.33 C 4.69 -4.61 4.73 -4.97 4.8 -5.41 C 4.84 -5.83 4.92 -6.31 4.98 -6.81 C 5.05 -7.3 5.12 -7.81 5.19 -8.28 C 5.22 -8.61 5.25 -8.91 5.3 -9.19 C 5.2 -9.2 5.08 -9.19 4.94 -9.16 C 4.7 -9.16 4.41 -9.12 4.09 -9.08 C 3.78 -9.02 3.44 -8.95 3.09 -8.88 C 2.97 -8.86 2.83 -8.83 2.69 -8.78 C 2.69 -8.62 2.69 -8.45 2.69 -8.3 C 2.66 -7.86 2.62 -7.44 2.58 -7 C 2.55 -6.58 2.5 -6.16 2.47 -5.77 C 2.44 -5.48 2.39 -5.17 2.36 -4.81 C 2.31 -4.44 2.27 -4.06 2.22 -3.66 C 2.19 -3.28 2.14 -2.91 2.09 -2.55 C 2.05 -2.2 2.02 -1.88 1.98 -1.62 C 1.95 -1.36 1.94 -1.16 1.92 -1.05 C 1.89 -0.77 1.83 -0.55 1.73 -0.41 C 1.64 -0.27 1.53 -0.19 1.41 -0.16 Z M 1.41 -0.16 "/></g></defs><path fill="#fff" fill-rule="evenodd" fill-opacity="1" stroke="#fff" stroke-width="0.216" stroke-opacity="1" stroke-linecap="butt" stroke-linejoin="bevel" stroke-miterlimit="22.925586" transform="matrix(0.9988 0.0000 0.0000 -0.9988 0.0000 841.3231)" d="M 127.87 775.53 C 127.83 775.45 127.8 775.38 127.77 775.3 C 127.74 775.2 127.72 775.09 127.7 774.98 C 127.68 774.87 127.67 774.76 127.66 774.66 C 127.66 774.57 127.66 774.48 127.67 774.39 C 127.69 774.3 127.7 774.22 127.71 774.13 C 127.71 774.07 127.71 774.01 127.7 773.95 C 127.7 773.9 127.68 773.85 127.67 773.81 C 127.65 773.77 127.62 773.73 127.6 773.7 C 127.57 773.67 127.52 773.65 127.48 773.64 C 127.43 773.64 127.39 773.65 127.35 773.68 C 127.3 773.72 127.26 773.77 127.22 773.82 C 127.19 773.9 127.15 773.97 127.12 774.05 C 127.1 774.13 127.07 774.21 127.03 774.28 C 127 774.34 126.96 774.4 126.91 774.45 C 126.88 774.48 126.83 774.51 126.79 774.53 C 126.76 774.54 126.72 774.53 126.7 774.51 C 126.66 774.47 126.64 774.43 126.64 774.38 C 126.63 774.24 126.63 774.1 126.63 773.96 C 126.63 773.79 126.64 773.63 126.65 773.47 C 126.67 773.3 126.69 773.13 126.71 772.97 C 126.72 772.86 126.74 772.76 126.75 772.66 C 126.76 772.59 126.76 772.53 126.75 772.46 C 126.75 772.42 126.74 772.37 126.73 772.33 C 126.72 772.29 126.7 772.25 126.68 772.21 C 126.64 772.15 126.59 772.09 126.54 772.05 C 126.42 771.94 126.31 771.84 126.18 771.73 C 126.06 771.62 125.94 771.52 125.82 771.41 C 125.78 771.38 125.74 771.36 125.69 771.35 C 125.66 771.34 125.63 771.32 125.59 771.3 C 125.39 771.16 125.18 771.01 124.98 770.87 C 124.78 770.73 124.59 770.6 124.4 770.46 C 124.34 770.41 124.28 770.36 124.22 770.31 C 124.21 770.3 124.21 770.3 124.2 770.29 C 124.19 770.29 124.18 770.28 124.17 770.27 C 124.16 770.27 124.15 770.26 124.14 770.26 C 124.14 770.26 124.13 770.25 124.12 770.25 C 124.11 770.25 124.1 770.24 124.09 770.24 C 124.06 770.22 124.04 770.2 124.01 770.19 C 123.98 770.17 123.95 770.14 123.92 770.12 C 123.88 770.1 123.85 770.07 123.81 770.04 C 123.77 770.01 123.73 769.99 123.69 769.96 C 123.64 769.92 123.58 769.89 123.53 769.86 C 123.48 769.82 123.43 769.79 123.38 769.76 C 123.33 769.73 123.29 769.7 123.24 769.68 C 123.11 769.61 122.99 769.53 122.86 769.44 C 122.75 769.37 122.65 769.29 122.55 769.2 C 122.42 769.09 122.3 768.97 122.18 768.85 C 121.98 768.64 121.77 768.43 121.57 768.22 C 121.37 768.01 121.16 767.8 120.96 767.6 C 120.83 767.47 120.7 767.35 120.56 767.24 C 120.47 767.18 120.38 767.12 120.28 767.07 C 120.22 767.04 120.15 767.04 120.09 767.06 C 120.03 767.1 119.96 767.11 119.9 767.12 C 119.82 767.13 119.75 767.13 119.67 767.12 C 119.6 767.11 119.53 767.1 119.46 767.07 C 119.4 767.04 119.35 767.01 119.3 766.97 C 119.27 766.94 119.24 766.91 119.21 766.89 C 119.16 766.86 119.12 766.83 119.07 766.79 C 119.03 766.76 118.98 766.73 118.93 766.7 C 118.89 766.67 118.84 766.65 118.8 766.62 C 118.7 766.56 118.61 766.5 118.51 766.44 C 118.42 766.38 118.33 766.32 118.25 766.25 C 118.17 766.2 118.1 766.14 118.04 766.08 C 118 766.05 117.97 766.01 117.95 765.97 C 117.94 765.95 117.94 765.93 117.94 765.91 C 117.94 765.87 117.95 765.82 117.96 765.79 C 117.96 765.74 117.97 765.69 117.98 765.64 C 118 765.59 118.01 765.54 118.03 765.49 C 118.05 765.44 118.06 765.38 118.08 765.33 C 118.1 765.27 118.12 765.22 118.14 765.16 C 118.15 765.11 118.17 765.06 118.18 765 C 118.19 764.97 118.21 764.93 118.22 764.9 L 118.28 764.68 L 118.02 764.5 C 117.94 764.44 117.86 764.4 117.77 764.36 C 117.63 764.3 117.49 764.24 117.35 764.19 C 117.2 764.13 117.04 764.08 116.89 764.03 C 116.75 763.99 116.6 763.95 116.46 763.91 C 116.36 763.89 116.26 763.87 116.16 763.86 C 116.08 763.85 115.99 763.85 115.9 763.86 C 115.83 763.86 115.76 763.88 115.69 763.9 C 115.63 763.92 115.58 763.95 115.53 763.99 C 115.47 764.05 115.41 764.11 115.34 764.17 C 115.29 764.22 115.25 764.26 115.19 764.31 C 115.16 764.35 115.11 764.39 115.07 764.43 C 115.03 764.48 114.98 764.53 114.94 764.57 C 114.91 764.6 114.89 764.63 114.86 764.66 C 114.83 764.69 114.81 764.72 114.78 764.75 C 114.76 764.78 114.73 764.8 114.71 764.83 C 114.69 764.84 114.67 764.86 114.66 764.88 C 114.56 764.99 114.47 765.1 114.37 765.21 C 114.29 765.32 114.21 765.42 114.13 765.53 C 114.06 765.64 114 765.74 113.94 765.85 C 113.89 765.94 113.84 766.04 113.8 766.14 C 113.74 766.28 113.68 766.43 113.61 766.56 C 113.56 766.67 113.49 766.78 113.42 766.88 C 113.35 766.99 113.26 767.1 113.17 767.2 C 113.04 767.35 112.9 767.49 112.76 767.64 C 112.7 767.7 112.64 767.76 112.57 767.82 C 112.51 767.89 112.44 767.96 112.37 768.04 C 112.3 768.1 112.24 768.17 112.18 768.24 C 112.14 768.28 112.1 768.32 112.06 768.36 C 112.04 768.38 112.03 768.4 112.01 768.42 C 111.98 768.45 111.95 768.48 111.92 768.52 C 111.88 768.55 111.85 768.59 111.82 768.62 C 111.78 768.66 111.75 768.7 111.71 768.74 C 111.54 768.91 111.38 769.09 111.22 769.27 C 111.03 769.48 110.85 769.69 110.66 769.91 C 110.48 770.11 110.31 770.31 110.14 770.52 C 110.02 770.66 109.91 770.8 109.8 770.94 C 109.65 771.14 109.5 771.33 109.35 771.53 C 109.27 771.63 109.19 771.73 109.1 771.83 C 109.04 771.9 108.97 771.96 108.9 772.02 C 108.82 772.08 108.75 772.14 108.66 772.19 C 108.52 772.28 108.37 772.36 108.23 772.43 C 108.1 772.49 107.98 772.54 107.85 772.57 C 107.75 772.6 107.64 772.62 107.53 772.63 C 107.43 772.63 107.33 772.62 107.23 772.59 C 107.17 772.57 107.11 772.56 107.05 772.54 C 107.04 772.53 107.02 772.52 107.01 772.51 C 107 772.5 107 772.48 107.01 772.48 C 107.03 772.45 107.05 772.43 107.07 772.41 C 107.1 772.39 107.12 772.36 107.14 772.33 C 107.15 772.3 107.15 772.27 107.14 772.25 C 107.13 772.21 107.11 772.18 107.08 772.16 C 107.03 772.11 106.98 772.07 106.93 772.04 C 106.91 772.02 106.88 772 106.86 771.98 C 106.84 771.96 106.83 771.95 106.81 771.93 C 106.79 771.91 106.79 771.89 106.77 771.88 C 106.77 771.87 106.77 771.86 106.77 771.84 C 106.78 771.83 106.79 771.82 106.8 771.82 C 106.84 771.81 106.88 771.8 106.92 771.8 C 106.97 771.8 107.02 771.79 107.07 771.79 C 107.13 771.79 107.18 771.79 107.24 771.79 C 107.3 771.8 107.36 771.8 107.43 771.79 C 107.5 771.79 107.56 771.79 107.63 771.78 C 107.69 771.78 107.75 771.77 107.81 771.76 C 107.86 771.76 107.9 771.75 107.94 771.73 C 107.99 771.72 108.04 771.7 108.09 771.68 C 108.12 771.67 108.15 771.66 108.17 771.63 C 108.2 771.61 108.22 771.59 108.23 771.56 C 108.25 771.52 108.27 771.48 108.28 771.44 C 108.3 771.41 108.3 771.37 108.31 771.34 C 108.32 771.31 108.32 771.28 108.32 771.25 C 108.32 771.22 108.32 771.2 108.32 771.17 C 108.32 771.15 108.31 771.14 108.3 771.12 C 108.29 771.1 108.27 771.09 108.25 771.08 C 108.21 771.07 108.17 771.06 108.12 771.05 C 108.07 771.04 108.02 771.04 107.96 771.03 C 107.9 771.03 107.84 771.02 107.78 771.02 C 107.68 771.02 107.57 771.01 107.47 771 C 107.38 770.99 107.3 770.98 107.22 770.95 C 107.16 770.94 107.1 770.91 107.04 770.87 C 107.01 770.85 106.97 770.81 106.95 770.77 C 106.94 770.74 106.95 770.71 106.98 770.69 C 107.04 770.65 107.11 770.62 107.18 770.59 C 107.3 770.54 107.42 770.5 107.54 770.46 C 107.75 770.4 107.96 770.34 108.17 770.28 C 108.41 770.21 108.64 770.14 108.88 770.06 C 109.03 770.01 109.17 769.94 109.3 769.86 C 109.41 769.81 109.5 769.73 109.57 769.65 C 109.65 769.56 109.71 769.46 109.75 769.36 C 109.76 769.34 109.77 769.31 109.78 769.29 C 109.79 769.26 109.81 769.23 109.82 769.19 C 109.84 769.15 109.86 769.11 109.88 769.08 C 109.9 769.04 109.93 769 109.95 768.96 C 109.97 768.92 109.99 768.88 110.01 768.84 C 110.03 768.8 110.06 768.75 110.08 768.71 C 110.1 768.66 110.12 768.62 110.14 768.58 C 110.15 768.55 110.17 768.52 110.18 768.48 C 110.19 768.45 110.2 768.43 110.22 768.4 C 110.23 768.37 110.25 768.34 110.26 768.32 C 110.28 768.29 110.29 768.27 110.31 768.25 C 110.32 768.23 110.33 768.21 110.35 768.2 C 110.36 768.19 110.37 768.18 110.38 768.17 C 110.39 768.16 110.4 768.14 110.4 768.13 C 110.41 768.12 110.41 768.11 110.41 768.1 C 110.41 768.08 110.41 768.08 110.41 768.07 C 110.4 768.06 110.4 768.05 110.4 768.05 C 110.41 768.03 110.41 768.03 110.42 768.02 C 110.42 768.01 110.43 768 110.44 767.99 C 110.44 767.99 110.45 767.98 110.47 767.98 C 110.48 767.97 110.49 767.96 110.5 767.96 C 110.51 767.95 110.51 767.94 110.52 767.93 C 110.53 767.92 110.54 767.92 110.54 767.91 C 110.54 767.9 110.54 767.89 110.54 767.89 C 110.54 767.83 110.56 767.78 110.59 767.73 C 110.85 767.34 111.1 766.94 111.37 766.55 C 111.61 766.18 111.86 765.81 112.11 765.44 C 112.18 765.34 112.25 765.25 112.34 765.16 C 112.36 765.15 112.37 765.14 112.38 765.12 C 112.39 765.11 112.41 765.09 112.41 765.08 C 112.42 765.07 112.43 765.05 112.43 765.04 C 112.43 765.03 112.43 765.02 112.43 765.01 C 112.43 765 112.42 765 112.42 764.99 C 112.42 764.98 112.43 764.97 112.43 764.96 C 112.43 764.96 112.43 764.95 112.44 764.94 C 112.45 764.94 112.45 764.93 112.46 764.93 C 112.47 764.92 112.48 764.92 112.49 764.91 C 112.53 764.85 112.57 764.8 112.6 764.76 C 112.65 764.69 112.69 764.64 112.73 764.58 C 112.79 764.51 112.83 764.44 112.88 764.37 C 112.93 764.3 112.98 764.22 113.03 764.15 C 113.07 764.09 113.12 764.02 113.17 763.95 C 113.21 763.9 113.25 763.84 113.29 763.79 C 113.3 763.76 113.32 763.74 113.34 763.71 C 113.4 763.63 113.45 763.54 113.51 763.46 C 113.58 763.34 113.65 763.23 113.73 763.11 C 113.8 762.98 113.88 762.86 113.95 762.74 C 113.96 762.73 113.96 762.71 113.95 762.7 C 113.95 762.69 113.95 762.69 113.94 762.68 C 113.93 762.67 113.91 762.65 113.89 762.63 C 113.87 762.61 113.85 762.6 113.83 762.58 C 113.81 762.56 113.78 762.54 113.76 762.52 C 113.73 762.5 113.7 762.47 113.68 762.44 C 113.65 762.41 113.63 762.39 113.61 762.36 C 113.59 762.33 113.58 762.3 113.56 762.27 C 113.55 762.25 113.54 762.22 113.53 762.19 C 113.5 762.03 113.47 761.88 113.43 761.72 C 113.4 761.62 113.36 761.51 113.31 761.4 C 113.27 761.3 113.22 761.21 113.15 761.12 C 113.07 760.99 112.98 760.87 112.89 760.74 C 112.75 760.56 112.64 760.35 112.55 760.14 C 112.45 759.84 112.35 759.54 112.28 759.23 C 112.19 758.9 112.13 758.56 112.09 758.22 C 112.05 757.9 112.03 757.58 112.03 757.25 C 112.04 757.19 112.04 757.13 112.03 757.08 C 112.03 757.02 112.03 756.97 112.03 756.92 C 112.03 756.88 112.03 756.83 112.03 756.79 C 112.03 756.77 112.02 756.76 112.02 756.75 C 112.01 756.74 112.01 756.74 112.01 756.73 C 112.01 756.72 112.01 756.71 112.02 756.7 C 112.02 756.69 112.02 756.69 112.03 756.68 C 112.03 756.67 112.04 756.67 112.05 756.66 C 112.05 756.66 112.06 756.66 112.07 756.65 C 112.07 756.65 112.08 756.64 112.08 756.63 C 112.08 756.62 112.09 756.61 112.09 756.61 C 112.08 756.6 112.08 756.59 112.08 756.58 C 112.06 756.54 112.05 756.5 112.06 756.46 C 112.07 756.32 112.09 756.19 112.11 756.06 C 112.14 755.93 112.16 755.8 112.19 755.66 C 112.2 755.58 112.23 755.5 112.26 755.42 C 112.28 755.37 112.3 755.33 112.32 755.29 C 112.35 755.23 112.38 755.17 112.41 755.11 C 112.45 755.05 112.48 754.98 112.52 754.91 C 112.56 754.85 112.6 754.79 112.64 754.72 C 112.68 754.66 112.72 754.59 112.75 754.53 C 112.8 754.45 112.84 754.38 112.88 754.3 C 112.91 754.23 112.95 754.16 112.98 754.09 C 113.01 754.03 113.04 753.98 113.06 753.92 C 113.09 753.83 113.12 753.74 113.15 753.65 C 113.16 753.58 113.16 753.51 113.14 753.45 C 113.12 753.39 113.09 753.34 113.05 753.29 C 112.99 753.25 112.93 753.2 112.86 753.17 C 112.68 753.09 112.49 753 112.31 752.91 C 112.16 752.84 112.01 752.75 111.86 752.67 C 111.73 752.6 111.61 752.53 111.49 752.45 C 111.39 752.39 111.28 752.32 111.19 752.24 C 110.94 752.05 110.69 751.85 110.44 751.66 C 109.97 751.28 109.51 750.91 109.04 750.54 C 108.55 750.15 108.07 749.75 107.58 749.36 C 107.46 749.27 107.34 749.16 107.22 749.06 C 107.15 748.99 107.06 748.92 106.99 748.84 C 106.93 748.8 106.88 748.75 106.83 748.7 C 106.78 748.65 106.73 748.6 106.68 748.55 C 106.6 748.46 106.52 748.38 106.44 748.3 C 106.34 748.2 106.24 748.1 106.14 748.01 C 106.02 747.9 105.89 747.79 105.75 747.68 C 105.62 747.58 105.5 747.47 105.36 747.37 C 105.34 747.35 105.31 747.35 105.28 747.36 C 105.27 747.36 105.26 747.36 105.26 747.36 C 105.25 747.36 105.25 747.36 105.24 747.36 C 105.23 747.36 105.23 747.35 105.22 747.34 C 105.21 747.34 105.21 747.33 105.21 747.33 C 105.19 747.29 105.17 747.27 105.14 747.25 C 105 747.16 104.86 747.07 104.71 746.98 C 104.57 746.89 104.42 746.8 104.28 746.71 C 104.25 746.7 104.22 746.68 104.19 746.69 C 104.18 746.69 104.17 746.68 104.17 746.68 C 104.16 746.68 104.15 746.68 104.14 746.67 C 104.13 746.67 104.13 746.66 104.12 746.65 C 104.12 746.65 104.11 746.64 104.11 746.63 C 104.1 746.62 104.1 746.61 104.08 746.6 C 104.04 746.57 104 746.54 103.95 746.51 C 103.9 746.47 103.85 746.44 103.8 746.4 C 103.74 746.36 103.68 746.32 103.62 746.29 C 103.55 746.25 103.49 746.21 103.42 746.17 C 103.36 746.12 103.29 746.08 103.22 746.04 C 103.16 746 103.11 745.96 103.05 745.93 C 103.01 745.9 102.97 745.88 102.93 745.85 C 102.66 745.68 102.39 745.51 102.12 745.34 C 101.98 745.25 101.84 745.17 101.69 745.09 C 101.59 745.03 101.49 744.99 101.39 744.95 C 101.3 744.91 101.21 744.89 101.12 744.87 C 100.99 744.85 100.87 744.82 100.75 744.79 C 100.64 744.75 100.53 744.71 100.43 744.66 C 100.31 744.61 100.21 744.55 100.11 744.48 C 99.97 744.39 99.84 744.3 99.72 744.2 C 99.64 744.13 99.55 744.08 99.47 744.02 C 99.39 743.96 99.3 743.91 99.22 743.86 C 99.14 743.81 99.05 743.77 98.96 743.73 C 98.87 743.69 98.78 743.65 98.69 743.61 C 98.51 743.55 98.33 743.48 98.15 743.41 C 98.07 743.38 97.99 743.33 97.92 743.29 C 97.87 743.25 97.82 743.2 97.78 743.15 C 97.73 743.08 97.69 743.01 97.65 742.93 C 97.63 742.87 97.6 742.8 97.57 742.74 C 97.56 742.71 97.55 742.68 97.55 742.64 C 97.55 742.6 97.56 742.57 97.58 742.55 C 97.6 742.5 97.63 742.45 97.66 742.41 C 97.74 742.3 97.84 742.2 97.95 742.12 C 98.09 742.04 98.24 741.97 98.39 741.93 C 98.55 741.88 98.71 741.86 98.88 741.85 C 99.03 741.85 99.18 741.87 99.32 741.92 C 99.36 741.93 99.39 741.94 99.42 741.94 C 99.49 741.96 99.55 741.97 99.62 741.98 C 99.69 742 99.77 742.01 99.84 742.03 C 99.93 742.04 100 742.05 100.08 742.06 C 100.16 742.08 100.25 742.09 100.33 742.11 C 100.4 742.13 100.48 742.14 100.55 742.17 C 100.61 742.19 100.67 742.21 100.73 742.23 C 100.77 742.24 100.81 742.26 100.84 742.29 C 100.86 742.31 100.89 742.34 100.92 742.37 C 100.95 742.42 100.99 742.46 101.03 742.51 C 101.06 742.57 101.1 742.63 101.14 742.69 C 101.17 742.75 101.21 742.81 101.24 742.87 C 101.29 742.97 101.35 743.06 101.4 743.16 C 101.44 743.21 101.48 743.27 101.53 743.32 C 101.57 743.37 101.63 743.41 101.68 743.45 C 101.78 743.51 101.87 743.57 101.96 743.63 C 101.99 743.64 102.01 743.65 102.04 743.66 C 102.22 743.73 102.41 743.8 102.59 743.87 C 102.8 743.95 103.02 744.03 103.23 744.11 C 103.48 744.2 103.72 744.29 103.97 744.38 C 104.41 744.54 104.86 744.7 105.3 744.87 C 105.53 744.95 105.76 745.04 105.98 745.13 C 106.13 745.19 106.27 745.25 106.41 745.31 C 106.53 745.36 106.64 745.42 106.74 745.48 C 106.77 745.49 106.81 745.51 106.84 745.53 C 106.87 745.55 106.91 745.57 106.94 745.58 C 106.97 745.6 107 745.62 107.03 745.63 C 107.05 745.64 107.07 745.65 107.09 745.66 C 107.15 745.68 107.2 745.71 107.25 745.75 C 107.32 745.8 107.39 745.85 107.46 745.91 C 107.54 745.98 107.62 746.05 107.71 746.13 C 107.8 746.22 107.89 746.31 107.97 746.41 C 108.15 746.59 108.33 746.77 108.53 746.93 C 108.71 747.07 108.91 747.2 109.12 747.32 C 109.39 747.47 109.67 747.61 109.95 747.72 C 110.45 747.94 110.96 748.14 111.46 748.34 C 111.58 748.39 111.7 748.44 111.82 748.49 C 111.94 748.53 112.05 748.58 112.16 748.63 C 112.27 748.67 112.37 748.73 112.48 748.77 C 112.6 748.83 112.72 748.88 112.83 748.93 C 112.89 748.96 112.95 748.99 113.01 749.02 C 113.07 749.05 113.13 749.07 113.19 749.1 C 113.24 749.12 113.29 749.14 113.34 749.16 C 113.36 749.17 113.38 749.18 113.41 749.19 C 113.49 749.22 113.56 749.25 113.63 749.29 C 113.75 749.35 113.87 749.41 113.98 749.48 C 114.1 749.55 114.22 749.61 114.33 749.68 C 114.41 749.73 114.48 749.78 114.55 749.83 C 114.63 749.89 114.71 749.96 114.78 750.02 C 114.92 750.13 115.06 750.25 115.19 750.36 C 115.42 750.54 115.64 750.73 115.86 750.91 C 116.27 751.26 116.69 751.61 117.11 751.96 C 117.17 752.01 117.23 752.06 117.28 752.11 C 117.34 752.16 117.39 752.2 117.44 752.25 C 117.48 752.29 117.52 752.33 117.56 752.37 C 117.58 752.38 117.59 752.4 117.6 752.41 C 117.62 752.45 117.65 752.48 117.69 752.5 C 117.79 752.53 117.9 752.56 118 752.59 C 118.14 752.62 118.28 752.65 118.41 752.67 C 118.58 752.7 118.75 752.72 118.91 752.74 C 118.99 752.75 119.07 752.76 119.15 752.77 C 119.22 752.78 119.29 752.79 119.36 752.8 C 119.42 752.81 119.48 752.82 119.54 752.83 C 119.56 752.83 119.59 752.84 119.61 752.84 C 119.62 752.84 119.63 752.85 119.65 752.85 C 119.66 752.85 119.68 752.86 119.69 752.86 C 119.7 752.86 119.71 752.86 119.72 752.86 C 119.73 752.86 119.74 752.85 119.75 752.85 C 119.76 752.84 119.77 752.84 119.78 752.85 C 119.82 752.86 119.86 752.86 119.91 752.87 C 119.96 752.88 120.01 752.9 120.06 752.91 C 120.12 752.93 120.18 752.94 120.24 752.96 C 120.31 752.98 120.37 752.99 120.43 753.01 C 120.5 753.03 120.56 753.05 120.63 753.07 C 120.69 753.08 120.75 753.1 120.81 753.11 C 120.85 753.13 120.89 753.14 120.93 753.15 C 120.96 753.16 120.99 753.16 121.03 753.18 C 121.06 753.18 121.1 753.2 121.13 753.21 C 121.16 753.22 121.19 753.23 121.23 753.23 C 121.25 753.24 121.27 753.25 121.3 753.26 C 121.32 753.27 121.35 753.28 121.38 753.28 C 121.44 753.3 121.5 753.31 121.55 753.32 C 121.62 753.34 121.69 753.36 121.76 753.37 C 121.83 753.39 121.9 753.4 121.98 753.41 C 122.05 753.43 122.12 753.45 122.19 753.46 C 122.26 753.47 122.32 753.49 122.39 753.5 C 122.44 753.51 122.5 753.52 122.55 753.54 C 122.57 753.54 122.59 753.54 122.61 753.55 C 122.63 753.55 122.64 753.56 122.66 753.56 C 122.69 753.56 122.73 753.57 122.76 753.57 C 122.8 753.58 122.84 753.59 122.88 753.59 C 122.92 753.59 122.97 753.6 123.01 753.61 C 123.12 753.62 123.24 753.65 123.35 753.67 C 123.46 753.7 123.57 753.74 123.67 753.79 C 123.78 753.83 123.88 753.89 123.98 753.95 C 124.08 754.01 124.17 754.08 124.27 754.15 C 124.41 754.27 124.54 754.42 124.64 754.58 C 124.77 754.77 124.87 754.98 124.96 755.19 C 125.08 755.48 125.18 755.77 125.25 756.06 C 125.36 756.47 125.46 756.88 125.55 757.29 C 125.59 757.47 125.63 757.65 125.66 757.84 C 125.69 757.98 125.72 758.12 125.75 758.26 C 125.78 758.36 125.8 758.46 125.83 758.57 C 125.84 758.63 125.86 758.69 125.88 758.75 C 125.89 758.79 125.9 758.82 125.91 758.85 C 125.92 758.91 125.94 758.97 125.95 759.03 C 125.97 759.1 125.99 759.17 126.01 759.23 C 126.02 759.3 126.04 759.37 126.06 759.44 C 126.09 759.57 126.13 759.69 126.18 759.81 C 126.26 760.01 126.34 760.21 126.43 760.41 C 126.55 760.7 126.68 760.99 126.81 761.27 C 127.01 761.71 127.21 762.15 127.4 762.58 C 127.68 763.18 127.95 763.77 128.22 764.37 C 128.34 764.64 128.45 764.91 128.55 765.18 C 128.61 765.35 128.66 765.52 128.7 765.7 C 128.73 765.85 128.74 766 128.73 766.16 C 128.73 766.23 128.72 766.32 128.69 766.39 C 128.66 766.47 128.63 766.56 128.59 766.63 C 128.55 766.7 128.5 766.76 128.45 766.82 C 128.41 766.87 128.36 766.9 128.3 766.92 C 128.14 766.97 127.97 767 127.8 766.99 C 127.66 766.99 127.52 766.93 127.41 766.84 C 127.27 766.72 127.15 766.58 127.06 766.42 C 126.92 766.14 126.79 765.87 126.67 765.58 C 126.62 765.47 126.57 765.35 126.52 765.24 C 126.47 765.13 126.42 765.02 126.36 764.91 C 126.32 764.82 126.27 764.73 126.22 764.64 C 126.2 764.58 126.16 764.53 126.13 764.49 C 126.02 764.34 125.91 764.19 125.81 764.03 C 125.73 763.93 125.66 763.82 125.59 763.7 C 125.54 763.62 125.49 763.53 125.45 763.43 C 125.41 763.35 125.37 763.27 125.34 763.18 C 125.32 763.12 125.31 763.06 125.29 762.99 C 125.28 762.94 125.28 762.89 125.28 762.84 C 125.28 762.79 125.28 762.73 125.29 762.68 C 125.31 762.62 125.32 762.55 125.34 762.48 C 125.36 762.44 125.38 762.39 125.39 762.34 C 125.39 762.3 125.4 762.25 125.41 762.2 C 125.41 762.16 125.42 762.12 125.42 762.08 C 125.42 762.05 125.42 762.03 125.41 762.01 C 125.4 761.99 125.39 761.97 125.38 761.95 C 125.37 761.92 125.36 761.89 125.35 761.86 C 125.34 761.83 125.32 761.8 125.31 761.76 C 125.3 761.74 125.29 761.71 125.27 761.68 C 125.23 761.56 125.17 761.45 125.11 761.34 C 125.02 761.18 124.92 761.02 124.82 760.86 C 124.69 760.66 124.55 760.46 124.41 760.26 C 124.24 760.01 124.06 759.76 123.88 759.51 C 123.82 759.43 123.76 759.36 123.71 759.28 C 123.65 759.2 123.59 759.12 123.53 759.04 C 123.48 758.96 123.43 758.89 123.37 758.82 C 123.34 758.77 123.3 758.72 123.27 758.67 C 123.18 758.56 123.11 758.44 123.04 758.31 C 122.98 758.18 122.92 758.04 122.88 757.9 C 122.83 757.77 122.8 757.63 122.78 757.5 C 122.76 757.37 122.75 757.24 122.75 757.12 C 122.76 756.94 122.74 756.77 122.69 756.6 C 122.65 756.47 122.56 756.38 122.43 756.34 C 122.25 756.28 122.07 756.25 121.88 756.27 C 121.44 756.29 121 756.33 120.56 756.38 C 120.47 756.38 120.38 756.39 120.29 756.4 C 120.2 756.41 120.12 756.42 120.04 756.43 C 119.97 756.44 119.9 756.45 119.83 756.46 C 119.8 756.46 119.77 756.47 119.74 756.47 C 119.72 756.47 119.7 756.48 119.68 756.48 C 119.65 756.48 119.62 756.48 119.59 756.49 C 119.56 756.49 119.52 756.49 119.49 756.49 C 119.46 756.5 119.43 756.5 119.4 756.5 C 119.37 756.5 119.33 756.5 119.29 756.5 C 119.24 756.51 119.18 756.52 119.13 756.53 C 119.07 756.54 119.01 756.56 118.95 756.57 C 118.89 756.58 118.83 756.59 118.77 756.61 C 118.69 756.63 118.61 756.66 118.53 756.68 C 118.48 756.7 118.42 756.72 118.37 756.75 C 118.32 756.77 118.27 756.81 118.22 756.84 C 118.16 756.89 118.09 756.93 118.03 756.99 C 117.94 757.06 117.85 757.13 117.76 757.2 C 117.68 757.26 117.6 757.31 117.52 757.37 C 117.44 757.42 117.35 757.47 117.27 757.52 C 117.18 757.57 117.09 757.62 116.99 757.66 L 116.72 757.79 L 116.89 758.08 C 116.92 758.12 116.95 758.17 116.97 758.21 C 117.01 758.27 117.04 758.32 117.08 758.38 C 117.12 758.43 117.15 758.49 117.19 758.55 C 117.22 758.59 117.25 758.64 117.28 758.69 C 117.43 758.91 117.58 759.13 117.73 759.36 C 117.85 759.54 117.96 759.72 118.08 759.91 C 118.17 760.06 118.27 760.22 118.36 760.38 C 118.45 760.53 118.53 760.68 118.61 760.83 C 118.74 761.08 118.88 761.33 119.03 761.58 C 119.13 761.75 119.24 761.92 119.36 762.08 C 119.44 762.18 119.53 762.28 119.63 762.37 C 119.68 762.41 119.76 762.43 119.83 762.41 C 119.84 762.4 119.86 762.39 119.87 762.39 C 119.91 762.37 119.95 762.35 119.99 762.33 C 120.04 762.31 120.08 762.28 120.13 762.26 C 120.18 762.24 120.23 762.21 120.28 762.19 C 120.37 762.14 120.45 762.1 120.54 762.07 C 120.62 762.05 120.69 762.03 120.77 762.01 C 120.85 762 120.94 762 121.03 762 C 121.17 762.01 121.31 762.02 121.45 762.03 L 121.69 762.05 L 121.75 761.84 C 121.77 761.77 121.8 761.7 121.83 761.64 C 121.85 761.58 121.88 761.53 121.92 761.49 C 121.96 761.45 122 761.41 122.05 761.37 C 122.11 761.33 122.16 761.3 122.22 761.27 C 122.32 761.23 122.43 761.21 122.53 761.22 C 122.66 761.24 122.78 761.28 122.89 761.33 C 123.03 761.4 123.16 761.48 123.27 761.58 C 123.41 761.71 123.54 761.84 123.65 761.97 C 123.72 762.05 123.77 762.13 123.82 762.22 C 123.87 762.29 123.89 762.37 123.91 762.45 C 123.93 762.52 123.93 762.59 123.92 762.66 C 123.92 762.73 123.89 762.8 123.86 762.87 C 123.81 762.97 123.76 763.07 123.72 763.16 C 123.69 763.23 123.67 763.29 123.66 763.35 C 123.65 763.41 123.65 763.47 123.66 763.52 C 123.67 763.6 123.69 763.68 123.71 763.75 C 123.73 763.79 123.74 763.84 123.75 763.88 C 123.76 763.93 123.78 763.97 123.79 764.02 C 123.79 764.05 123.8 764.09 123.81 764.13 C 123.81 764.15 123.81 764.17 123.81 764.19 C 123.81 764.21 123.81 764.23 123.81 764.26 C 123.81 764.3 123.81 764.33 123.81 764.38 C 123.81 764.42 123.81 764.47 123.82 764.52 C 123.82 764.57 123.82 764.62 123.82 764.67 C 123.82 764.72 123.82 764.78 123.81 764.83 C 123.81 764.9 123.8 764.96 123.79 765.03 C 123.78 765.09 123.77 765.15 123.76 765.21 C 123.75 765.26 123.73 765.32 123.71 765.37 C 123.68 765.46 123.64 765.54 123.59 765.62 C 123.52 765.75 123.44 765.86 123.36 765.98 C 123.26 766.11 123.16 766.23 123.06 766.36 C 122.95 766.49 122.85 766.61 122.74 766.73 C 122.71 766.76 122.69 766.78 122.67 766.81 C 122.65 766.83 122.65 766.85 122.65 766.87 C 122.65 766.89 122.66 766.91 122.67 766.93 C 122.7 766.96 122.72 766.99 122.75 767.02 C 122.77 767.05 122.8 767.08 122.83 767.1 C 122.87 767.14 122.92 767.18 122.97 767.22 C 123.02 767.26 123.07 767.3 123.13 767.35 C 123.18 767.38 123.24 767.42 123.29 767.46 C 123.36 767.51 123.43 767.56 123.49 767.61 C 123.58 767.69 123.68 767.78 123.77 767.86 C 123.87 767.95 123.97 768.04 124.07 768.14 C 124.16 768.23 124.26 768.32 124.35 768.42 C 124.43 768.51 124.52 768.6 124.6 768.69 C 124.68 768.77 124.76 768.85 124.84 768.93 C 124.9 769 124.97 769.06 125.03 769.13 C 125.05 769.15 125.08 769.17 125.1 769.2 C 125.12 769.22 125.14 769.23 125.16 769.25 C 125.21 769.31 125.27 769.36 125.32 769.42 C 125.38 769.48 125.45 769.55 125.51 769.61 C 125.57 769.68 125.64 769.75 125.71 769.83 C 125.78 769.9 125.84 769.97 125.91 770.04 C 125.97 770.1 126.04 770.17 126.1 770.23 C 126.15 770.28 126.2 770.34 126.26 770.39 C 126.28 770.41 126.3 770.44 126.32 770.45 C 126.34 770.47 126.36 770.49 126.38 770.51 C 126.4 770.53 126.43 770.56 126.46 770.59 C 126.49 770.62 126.53 770.66 126.56 770.69 C 126.59 770.72 126.63 770.76 126.66 770.79 C 126.69 770.82 126.72 770.86 126.76 770.89 C 126.79 770.93 126.83 770.97 126.87 771 C 126.9 771.03 126.94 771.07 126.97 771.1 C 127 771.12 127.03 771.15 127.05 771.17 C 127.19 771.3 127.32 771.42 127.46 771.55 C 127.54 771.63 127.62 771.72 127.7 771.82 C 127.77 771.91 127.83 772.01 127.89 772.11 C 127.96 772.25 128.04 772.4 128.11 772.55 C 128.18 772.7 128.25 772.84 128.32 772.99 C 128.34 773.05 128.36 773.11 128.38 773.18 C 128.39 773.22 128.39 773.27 128.39 773.33 C 128.38 773.39 128.37 773.46 128.36 773.53 C 128.34 773.58 128.34 773.62 128.33 773.67 C 128.32 773.73 128.32 773.79 128.32 773.85 C 128.31 773.9 128.31 773.97 128.31 774.03 C 128.31 774.08 128.32 774.13 128.32 774.18 C 128.34 774.28 128.34 774.39 128.33 774.5 C 128.33 774.62 128.32 774.75 128.3 774.86 C 128.28 774.98 128.25 775.09 128.22 775.2 C 128.19 775.28 128.16 775.36 128.12 775.44 C 128.09 775.49 128.05 775.54 128.02 775.59 C 128.01 775.61 127.99 775.62 127.97 775.63 C 127.96 775.63 127.94 775.63 127.93 775.61 C 127.91 775.59 127.89 775.56 127.87 775.53 Z M 127.87 775.53 "/><use fill="#fff" fill-opacity="1" transform="matrix(1.0000 0.0000 0.0000 1.0000 0.0000 0.0000)" href="#glyph-1-3" x="114.529427" y="109.388438"/><use fill="#fff" fill-opacity="1" transform="matrix(1.0000 0.0000 0.0000 1.0000 0.0000 0.0000)" href="#glyph-1-19" x="120.44432" y="108.131256"/><use fill="#fff" fill-opacity="1" transform="matrix(1.0000 0.0000 0.0000 1.0000 0.0000 0.0000)" href="#glyph-1-20" x="123.486265" y="107.484705"/><path fill="none" stroke="#fff" stroke-width="0.216" stroke-opacity="1" stroke-linecap="butt" stroke-linejoin="miter" stroke-miterlimit="22.925586" transform="matrix(0.9988 0.0000 0.0000 -0.9988 0.0000 841.3231)" d="M 116.55 741.26 C 116.38 741.23 116.25 741.27 116.19 741.4 C 116.09 741.53 116.06 741.71 116.08 741.9 C 116.11 742.09 116.17 742.24 116.27 742.39 C 116.36 742.53 116.49 742.64 116.67 742.71 C 116.75 742.75 116.89 742.81 117.13 742.92 C 117.38 743.01 117.63 743.11 117.97 743.23 C 118.28 743.32 118.63 743.42 119 743.5 C 119.55 743.61 119.94 743.65 120.26 743.62 C 120.54 743.59 120.74 743.5 120.87 743.37 C 120.96 743.21 120.99 743.03 120.98 742.82 C 120.94 742.64 120.9 742.51 120.83 742.39 C 120.74 742.28 120.62 742.21 120.47 742.18 C 120.38 742.17 120.26 742.14 120.11 742.15 C 119.94 742.15 119.75 742.12 119.52 742.12 C 119.29 742.12 118.97 742.06 118.63 741.98 C 118.27 741.9 117.97 741.84 117.71 741.71 C 117.69 741.67 117.69 741.6 117.67 741.54 C 117.64 741.23 117.6 740.9 117.53 740.54 C 117.49 740.16 117.46 739.82 117.41 739.49 C 117.39 739.4 117.38 739.29 117.38 739.21 C 117.47 739.24 117.58 739.27 117.71 739.3 C 117.97 739.37 118.27 739.41 118.55 739.46 C 118.83 739.51 119.11 739.49 119.35 739.48 C 119.61 739.43 119.83 739.37 120.01 739.23 C 120.18 739.08 120.33 738.9 120.41 738.65 C 120.49 738.37 120.51 738.02 120.46 737.55 C 120.41 737.22 120.32 736.85 120.18 736.49 C 120.04 736.1 119.85 735.74 119.63 735.36 C 119.4 734.99 119.14 734.66 118.89 734.34 C 118.61 734.03 118.35 733.77 118.07 733.56 C 117.8 733.36 117.5 733.2 117.25 733.16 C 116.91 733.08 116.63 733.16 116.42 733.33 C 116.22 733.55 116.06 733.86 115.98 734.27 C 115.91 734.67 115.91 735.16 115.97 735.71 C 116 735.91 116.02 736.14 116.06 736.43 C 116.09 736.68 116.13 736.97 116.17 737.27 C 116.22 737.57 116.27 737.86 116.3 738.16 C 116.33 738.46 116.36 738.71 116.39 738.99 C 116.41 739.18 116.44 739.43 116.47 739.73 C 116.52 740.04 116.55 740.34 116.59 740.66 C 116.64 740.9 116.67 741.09 116.69 741.29 C 116.64 741.27 116.59 741.27 116.55 741.26 Z M 117.2 737.86 C 117.19 737.68 117.14 737.46 117.11 737.25 C 117.08 736.97 117.05 736.71 117 736.46 C 116.97 736.22 116.95 736.02 116.94 735.88 C 116.89 735.44 116.91 735.11 117 734.89 C 117.1 734.66 117.25 734.55 117.47 734.59 C 117.66 734.64 117.85 734.75 118.05 734.92 C 118.25 735.08 118.47 735.3 118.68 735.56 C 118.85 735.82 119.02 736.1 119.16 736.38 C 119.3 736.64 119.38 736.94 119.41 737.22 C 119.44 737.54 119.38 737.77 119.22 737.9 C 119.07 738.01 118.83 738.07 118.49 738.05 C 118.16 738.05 117.72 737.99 117.2 737.86 Z M 125.04 734.89 C 124.93 734.87 124.82 734.89 124.75 735 C 124.68 735.09 124.62 735.25 124.6 735.45 C 124.56 735.62 124.57 735.89 124.6 736.19 C 124.64 736.48 124.68 736.86 124.75 737.25 C 124.79 737.66 124.85 738.1 124.92 738.55 C 124.98 739 125.04 739.46 125.09 739.93 C 125.14 740.3 125.17 740.71 125.23 741.15 C 125.26 741.58 125.29 742.04 125.32 742.46 C 125.34 742.76 125.34 743.02 125.32 743.26 C 125.32 743.26 125.31 743.26 125.29 743.26 C 125.18 743.23 125.07 743.26 125 743.3 C 124.9 743.35 124.85 743.41 124.82 743.52 C 124.78 743.63 124.76 743.74 124.78 743.84 C 124.81 744.06 124.85 744.21 124.96 744.35 C 125.06 744.48 125.21 744.59 125.39 744.67 C 125.57 744.74 125.76 744.81 125.97 744.85 C 126.25 744.9 126.53 744.96 126.84 745.01 C 127.14 745.07 127.4 745.12 127.7 745.17 C 127.98 745.21 128.25 745.26 128.5 745.29 C 128.72 745.32 128.91 745.37 129.05 745.39 C 129.42 745.43 129.69 745.39 129.81 745.23 C 129.94 745.09 129.99 744.79 129.94 744.38 C 129.89 743.98 129.85 743.56 129.78 743.13 C 129.74 742.68 129.66 742.21 129.6 741.79 C 129.53 741.35 129.47 740.94 129.44 740.57 C 129.38 740.16 129.33 739.8 129.3 739.53 C 129.22 738.83 129.17 738.2 129.16 737.67 C 129.14 737.16 129.13 736.78 129.11 736.53 C 129.09 736.41 129.06 736.26 129 736.14 C 128.95 736 128.89 735.87 128.83 735.78 C 128.75 735.7 128.66 735.64 128.55 735.62 C 128.39 735.59 128.28 735.69 128.22 735.97 C 128.16 736.23 128.12 736.62 128.14 737.16 C 128.17 737.69 128.2 738.33 128.3 739.07 C 128.33 739.35 128.37 739.71 128.44 740.14 C 128.48 740.57 128.56 741.05 128.63 741.55 C 128.69 742.04 128.77 742.55 128.83 743.02 C 128.86 743.35 128.89 743.65 128.94 743.93 C 128.84 743.95 128.72 743.93 128.58 743.9 C 128.34 743.9 128.05 743.87 127.73 743.82 C 127.42 743.76 127.08 743.7 126.73 743.62 C 126.61 743.6 126.47 743.57 126.33 743.52 C 126.33 743.37 126.33 743.2 126.33 743.04 C 126.29 742.6 126.26 742.18 126.22 741.74 C 126.18 741.32 126.14 740.9 126.11 740.5 C 126.08 740.22 126.03 739.91 126 739.55 C 125.95 739.17 125.9 738.8 125.86 738.39 C 125.82 738.02 125.78 737.64 125.73 737.28 C 125.68 736.94 125.65 736.61 125.62 736.36 C 125.59 736.09 125.57 735.89 125.56 735.78 C 125.53 735.5 125.46 735.28 125.37 735.14 C 125.28 735 125.17 734.92 125.04 734.89 Z M 125.04 734.89 "/></svg>